<mxfile host="app.diagrams.net" modified="2022-08-22T08:49:16.263Z" agent="5.0 (Windows NT 10.0; Win64; x64) AppleWebKit/537.36 (KHTML, like Gecko) Chrome/104.0.0.0 Safari/537.36" etag="sOhi9N_Ba7mDfOSHocOo" version="20.2.4" type="github" pages="2">
  <diagram id="-5fFSxXi7U5C2eJZy0Lc" name="Page-1">
    <mxGraphModel dx="1422" dy="794" grid="0" gridSize="10" guides="1" tooltips="1" connect="1" arrows="1" fold="1" page="1" pageScale="1" pageWidth="827" pageHeight="1169" math="0" shadow="0">
      <root>
        <mxCell id="0" />
        <mxCell id="1" parent="0" />
        <mxCell id="r03zhSHbBfPZ_AZeYDTI-1" value="Diagramme&amp;nbsp; de séquence gerer &lt;span style=&quot;background-color: rgb(255, 255, 255);&quot;&gt;demandes de changements&lt;/span&gt;" style="shape=umlFrame;whiteSpace=wrap;html=1;rounded=0;shadow=0;glass=0;sketch=0;fontSize=15;fillColor=none;width=509;height=36;" parent="1" vertex="1">
          <mxGeometry x="31" y="14" width="1665" height="1017" as="geometry" />
        </mxCell>
        <mxCell id="r03zhSHbBfPZ_AZeYDTI-2" value="Loop: pour &lt;br&gt;&lt;div style=&quot;text-align: center;&quot;&gt;&lt;span style=&quot;background-color: initial;&quot;&gt;chaque changelog&lt;/span&gt;&lt;/div&gt;" style="shape=umlFrame;whiteSpace=wrap;html=1;rounded=0;shadow=0;glass=0;sketch=0;fontSize=15;fillColor=none;width=157;height=39;align=left;" parent="1" vertex="1">
          <mxGeometry x="324" y="375" width="1322" height="164" as="geometry" />
        </mxCell>
        <mxCell id="r03zhSHbBfPZ_AZeYDTI-3" value=":&lt;span style=&quot;background-color: rgb(248, 249, 250);&quot;&gt;Changelog&lt;/span&gt;&lt;br&gt;Controler" style="shape=umlLifeline;perimeter=lifelinePerimeter;whiteSpace=wrap;html=1;container=1;collapsible=0;recursiveResize=0;outlineConnect=0;rounded=0;shadow=0;glass=0;sketch=0;fillColor=none;fontSize=15;fontColor=#005C00;strokeColor=#005C00;labelBackgroundColor=default;" parent="1" vertex="1">
          <mxGeometry x="604" y="65" width="130" height="950" as="geometry" />
        </mxCell>
        <mxCell id="r03zhSHbBfPZ_AZeYDTI-4" value="" style="html=1;points=[];perimeter=orthogonalPerimeter;rounded=0;shadow=0;glass=0;sketch=0;fontSize=15;fillColor=none;" parent="r03zhSHbBfPZ_AZeYDTI-3" vertex="1">
          <mxGeometry x="59" y="222" width="10" height="82" as="geometry" />
        </mxCell>
        <mxCell id="r03zhSHbBfPZ_AZeYDTI-5" value="" style="shape=umlLifeline;participant=umlActor;perimeter=lifelinePerimeter;whiteSpace=wrap;html=1;container=1;collapsible=0;recursiveResize=0;verticalAlign=top;spacingTop=36;outlineConnect=0;fillColor=none;size=32;sketch=0;shadow=0;rounded=0;glass=0;" parent="1" vertex="1">
          <mxGeometry x="110" y="65" width="20" height="950" as="geometry" />
        </mxCell>
        <mxCell id="r03zhSHbBfPZ_AZeYDTI-6" value="&lt;span style=&quot;color: rgb(0, 0, 0); font-family: Helvetica; font-size: 12px; font-style: normal; font-variant-ligatures: normal; font-variant-caps: normal; font-weight: 400; letter-spacing: normal; orphans: 2; text-align: center; text-indent: 0px; text-transform: none; widows: 2; word-spacing: 0px; -webkit-text-stroke-width: 0px; background-color: rgb(248, 249, 250); text-decoration-thickness: initial; text-decoration-style: initial; text-decoration-color: initial; float: none; display: inline !important;&quot;&gt;Administrateur&lt;/span&gt;" style="text;whiteSpace=wrap;html=1;" parent="1" vertex="1">
          <mxGeometry x="72" y="91" width="105" height="36" as="geometry" />
        </mxCell>
        <mxCell id="r03zhSHbBfPZ_AZeYDTI-7" value=":Changelog&lt;br&gt;Service" style="shape=umlLifeline;perimeter=lifelinePerimeter;whiteSpace=wrap;html=1;container=1;collapsible=0;recursiveResize=0;outlineConnect=0;rounded=0;shadow=0;glass=0;sketch=0;fillColor=none;fontSize=15;fontColor=#005C00;strokeColor=#005C00;" parent="1" vertex="1">
          <mxGeometry x="846" y="65" width="130" height="950" as="geometry" />
        </mxCell>
        <mxCell id="r03zhSHbBfPZ_AZeYDTI-8" value="" style="html=1;points=[];perimeter=orthogonalPerimeter;rounded=0;shadow=0;glass=0;sketch=0;fontSize=15;fillColor=none;" parent="r03zhSHbBfPZ_AZeYDTI-7" vertex="1">
          <mxGeometry x="59" y="231" width="10" height="66" as="geometry" />
        </mxCell>
        <mxCell id="r03zhSHbBfPZ_AZeYDTI-9" value="" style="shape=umlLifeline;participant=umlEntity;perimeter=lifelinePerimeter;whiteSpace=wrap;html=1;container=1;collapsible=0;recursiveResize=0;verticalAlign=top;spacingTop=36;outlineConnect=0;rounded=0;shadow=0;glass=0;sketch=0;fontSize=15;fillColor=none;fontColor=#CC6600;strokeColor=#005C00;" parent="1" vertex="1">
          <mxGeometry x="1037" y="65" width="98" height="950" as="geometry" />
        </mxCell>
        <mxCell id="r03zhSHbBfPZ_AZeYDTI-10" value="" style="html=1;points=[];perimeter=orthogonalPerimeter;rounded=0;shadow=0;glass=0;sketch=0;fontSize=15;fillColor=none;" parent="r03zhSHbBfPZ_AZeYDTI-9" vertex="1">
          <mxGeometry x="44" y="238" width="10" height="45" as="geometry" />
        </mxCell>
        <mxCell id="r03zhSHbBfPZ_AZeYDTI-11" value="&lt;span style=&quot;font-family: Helvetica; font-size: 15px; font-style: normal; font-variant-ligatures: normal; font-variant-caps: normal; font-weight: 400; letter-spacing: normal; orphans: 2; text-indent: 0px; text-transform: none; widows: 2; word-spacing: 0px; -webkit-text-stroke-width: 0px; background-color: rgb(248, 249, 250); text-decoration-thickness: initial; text-decoration-style: initial; text-decoration-color: initial; float: none; display: inline !important;&quot;&gt;Base de donnée&lt;br&gt;Risk_Change&lt;br&gt;&lt;/span&gt;" style="text;whiteSpace=wrap;html=1;fontSize=15;align=center;fillColor=none;fontColor=#005C00;" parent="r03zhSHbBfPZ_AZeYDTI-9" vertex="1">
          <mxGeometry x="-10.5" y="50" width="119" height="45" as="geometry" />
        </mxCell>
        <mxCell id="r03zhSHbBfPZ_AZeYDTI-12" value="" style="shape=umlLifeline;participant=umlBoundary;perimeter=lifelinePerimeter;whiteSpace=wrap;html=1;container=1;collapsible=0;recursiveResize=0;verticalAlign=top;spacingTop=36;outlineConnect=0;rounded=0;shadow=0;glass=0;sketch=0;fontSize=15;fillColor=none;fontColor=#CC6600;strokeColor=#005C00;" parent="1" vertex="1">
          <mxGeometry x="289" y="65" width="65" height="950" as="geometry" />
        </mxCell>
        <mxCell id="r03zhSHbBfPZ_AZeYDTI-13" value="" style="html=1;points=[];perimeter=orthogonalPerimeter;rounded=0;shadow=0;glass=0;sketch=0;fontSize=15;fillColor=none;" parent="r03zhSHbBfPZ_AZeYDTI-12" vertex="1">
          <mxGeometry x="27.5" y="214" width="10" height="350" as="geometry" />
        </mxCell>
        <mxCell id="r03zhSHbBfPZ_AZeYDTI-14" value=":Employee&lt;br&gt;Controler" style="shape=umlLifeline;perimeter=lifelinePerimeter;whiteSpace=wrap;html=1;container=1;collapsible=0;recursiveResize=0;outlineConnect=0;rounded=0;shadow=0;glass=0;sketch=0;fillColor=none;fontSize=15;strokeColor=#0000CC;fontColor=#0000CC;" parent="1" vertex="1">
          <mxGeometry x="1153" y="65" width="130" height="950" as="geometry" />
        </mxCell>
        <mxCell id="r03zhSHbBfPZ_AZeYDTI-15" value="" style="html=1;points=[];perimeter=orthogonalPerimeter;rounded=0;shadow=0;glass=0;sketch=0;fontSize=15;fillColor=none;" parent="r03zhSHbBfPZ_AZeYDTI-14" vertex="1">
          <mxGeometry x="59" y="334" width="10" height="86" as="geometry" />
        </mxCell>
        <mxCell id="r03zhSHbBfPZ_AZeYDTI-16" value="" style="shape=umlLifeline;participant=umlEntity;perimeter=lifelinePerimeter;whiteSpace=wrap;html=1;container=1;collapsible=0;recursiveResize=0;verticalAlign=top;spacingTop=36;outlineConnect=0;rounded=0;shadow=0;glass=0;sketch=0;fontSize=15;fillColor=none;strokeColor=#0000CC;" parent="1" vertex="1">
          <mxGeometry x="1577" y="60" width="91" height="950" as="geometry" />
        </mxCell>
        <mxCell id="r03zhSHbBfPZ_AZeYDTI-17" value="Base de donnée&lt;br&gt;Personnel" style="text;whiteSpace=wrap;html=1;fontSize=15;align=center;fillColor=default;fontColor=#0000CC;" parent="r03zhSHbBfPZ_AZeYDTI-16" vertex="1">
          <mxGeometry x="-11" y="55" width="118" height="48" as="geometry" />
        </mxCell>
        <mxCell id="r03zhSHbBfPZ_AZeYDTI-18" value="" style="html=1;points=[];perimeter=orthogonalPerimeter;rounded=0;shadow=0;glass=0;sketch=0;fontSize=15;fillColor=none;" parent="r03zhSHbBfPZ_AZeYDTI-16" vertex="1">
          <mxGeometry x="27.5" y="352.5" width="10" height="55" as="geometry" />
        </mxCell>
        <mxCell id="r03zhSHbBfPZ_AZeYDTI-19" value=":Employee&lt;br&gt;Service" style="shape=umlLifeline;perimeter=lifelinePerimeter;whiteSpace=wrap;html=1;container=1;collapsible=0;recursiveResize=0;outlineConnect=0;rounded=0;shadow=0;glass=0;sketch=0;fillColor=none;fontSize=15;strokeColor=#0000CC;fontColor=#0000CC;" parent="1" vertex="1">
          <mxGeometry x="1384" y="65" width="130" height="950" as="geometry" />
        </mxCell>
        <mxCell id="r03zhSHbBfPZ_AZeYDTI-20" value="" style="html=1;points=[];perimeter=orthogonalPerimeter;rounded=0;shadow=0;glass=0;sketch=0;fontSize=15;fillColor=none;" parent="r03zhSHbBfPZ_AZeYDTI-19" vertex="1">
          <mxGeometry x="59" y="337" width="10" height="70" as="geometry" />
        </mxCell>
        <mxCell id="r03zhSHbBfPZ_AZeYDTI-21" value="" style="edgeStyle=elbowEdgeStyle;fontSize=12;html=1;endArrow=blockThin;endFill=1;rounded=0;" parent="1" target="r03zhSHbBfPZ_AZeYDTI-13" edge="1">
          <mxGeometry width="160" relative="1" as="geometry">
            <mxPoint x="119.32352941176487" y="288" as="sourcePoint" />
            <mxPoint x="258.5" y="288" as="targetPoint" />
            <Array as="points">
              <mxPoint x="190" y="288" />
              <mxPoint x="171" y="261" />
            </Array>
          </mxGeometry>
        </mxCell>
        <mxCell id="r03zhSHbBfPZ_AZeYDTI-22" value="demander liste changements" style="edgeLabel;html=1;align=center;verticalAlign=middle;resizable=0;points=[];fontSize=15;" parent="r03zhSHbBfPZ_AZeYDTI-21" vertex="1" connectable="0">
          <mxGeometry x="-0.3952" relative="1" as="geometry">
            <mxPoint x="39" y="-13" as="offset" />
          </mxGeometry>
        </mxCell>
        <mxCell id="r03zhSHbBfPZ_AZeYDTI-23" value="" style="edgeStyle=elbowEdgeStyle;fontSize=12;html=1;endArrow=blockThin;endFill=1;rounded=0;" parent="1" source="r03zhSHbBfPZ_AZeYDTI-43" target="r03zhSHbBfPZ_AZeYDTI-4" edge="1">
          <mxGeometry width="160" relative="1" as="geometry">
            <mxPoint x="532" y="237" as="sourcePoint" />
            <mxPoint x="637" y="443" as="targetPoint" />
            <Array as="points">
              <mxPoint x="561" y="297" />
              <mxPoint x="444" y="291" />
              <mxPoint x="426" y="304" />
            </Array>
          </mxGeometry>
        </mxCell>
        <mxCell id="r03zhSHbBfPZ_AZeYDTI-24" value="query()" style="edgeLabel;html=1;align=center;verticalAlign=middle;resizable=0;points=[];fontSize=15;" parent="r03zhSHbBfPZ_AZeYDTI-23" vertex="1" connectable="0">
          <mxGeometry x="-0.2194" y="3" relative="1" as="geometry">
            <mxPoint x="13" y="-9" as="offset" />
          </mxGeometry>
        </mxCell>
        <mxCell id="r03zhSHbBfPZ_AZeYDTI-25" value="" style="edgeStyle=elbowEdgeStyle;fontSize=12;html=1;endArrow=blockThin;endFill=1;rounded=0;" parent="1" source="r03zhSHbBfPZ_AZeYDTI-4" target="r03zhSHbBfPZ_AZeYDTI-8" edge="1">
          <mxGeometry width="160" relative="1" as="geometry">
            <mxPoint x="394" y="355" as="sourcePoint" />
            <mxPoint x="554" y="355" as="targetPoint" />
            <Array as="points">
              <mxPoint x="753" y="308" />
              <mxPoint x="602" y="293" />
              <mxPoint x="527" y="322" />
            </Array>
          </mxGeometry>
        </mxCell>
        <mxCell id="r03zhSHbBfPZ_AZeYDTI-26" value="getAll&lt;span style=&quot;background-color: rgb(248, 249, 250);&quot;&gt;ChangeLogs&lt;/span&gt;()" style="edgeLabel;html=1;align=center;verticalAlign=middle;resizable=0;points=[];fontSize=15;" parent="r03zhSHbBfPZ_AZeYDTI-25" vertex="1" connectable="0">
          <mxGeometry x="0.1239" relative="1" as="geometry">
            <mxPoint x="-14" y="-11" as="offset" />
          </mxGeometry>
        </mxCell>
        <mxCell id="r03zhSHbBfPZ_AZeYDTI-27" value="" style="edgeStyle=elbowEdgeStyle;fontSize=12;html=1;endArrow=blockThin;endFill=1;rounded=0;" parent="1" source="r03zhSHbBfPZ_AZeYDTI-8" target="r03zhSHbBfPZ_AZeYDTI-10" edge="1">
          <mxGeometry width="160" relative="1" as="geometry">
            <mxPoint x="474" y="355" as="sourcePoint" />
            <mxPoint x="634" y="355" as="targetPoint" />
            <Array as="points">
              <mxPoint x="927" y="313" />
              <mxPoint x="766" y="318" />
            </Array>
          </mxGeometry>
        </mxCell>
        <mxCell id="r03zhSHbBfPZ_AZeYDTI-28" value="findAll()" style="edgeLabel;html=1;align=center;verticalAlign=middle;resizable=0;points=[];fontSize=15;" parent="r03zhSHbBfPZ_AZeYDTI-27" vertex="1" connectable="0">
          <mxGeometry x="-0.3561" y="2" relative="1" as="geometry">
            <mxPoint x="23" y="-9" as="offset" />
          </mxGeometry>
        </mxCell>
        <mxCell id="r03zhSHbBfPZ_AZeYDTI-29" value="liste des changements" style="html=1;verticalAlign=bottom;endArrow=open;dashed=1;endSize=8;rounded=0;fontSize=15;" parent="1" source="r03zhSHbBfPZ_AZeYDTI-10" target="r03zhSHbBfPZ_AZeYDTI-8" edge="1">
          <mxGeometry relative="1" as="geometry">
            <mxPoint x="806" y="342" as="sourcePoint" />
            <mxPoint x="668" y="342" as="targetPoint" />
            <Array as="points">
              <mxPoint x="948" y="346" />
            </Array>
          </mxGeometry>
        </mxCell>
        <mxCell id="r03zhSHbBfPZ_AZeYDTI-30" value="liste des changements" style="html=1;verticalAlign=bottom;endArrow=open;dashed=1;endSize=8;rounded=0;fontSize=15;" parent="1" source="r03zhSHbBfPZ_AZeYDTI-8" target="r03zhSHbBfPZ_AZeYDTI-4" edge="1">
          <mxGeometry relative="1" as="geometry">
            <mxPoint x="658" y="347" as="sourcePoint" />
            <mxPoint x="477" y="347" as="targetPoint" />
            <Array as="points">
              <mxPoint x="758" y="357" />
            </Array>
          </mxGeometry>
        </mxCell>
        <mxCell id="r03zhSHbBfPZ_AZeYDTI-31" value="liste des changements" style="html=1;verticalAlign=bottom;endArrow=open;dashed=1;endSize=8;rounded=0;fontSize=15;" parent="1" source="r03zhSHbBfPZ_AZeYDTI-4" target="r03zhSHbBfPZ_AZeYDTI-43" edge="1">
          <mxGeometry x="-0.0189" y="-3" relative="1" as="geometry">
            <mxPoint x="479" y="359" as="sourcePoint" />
            <mxPoint x="298" y="359" as="targetPoint" />
            <Array as="points">
              <mxPoint x="512" y="364" />
            </Array>
            <mxPoint as="offset" />
          </mxGeometry>
        </mxCell>
        <mxCell id="r03zhSHbBfPZ_AZeYDTI-32" value="" style="edgeStyle=elbowEdgeStyle;fontSize=12;html=1;endArrow=blockThin;endFill=1;rounded=0;" parent="1" source="r03zhSHbBfPZ_AZeYDTI-43" target="r03zhSHbBfPZ_AZeYDTI-15" edge="1">
          <mxGeometry width="160" relative="1" as="geometry">
            <mxPoint x="312" y="410" as="sourcePoint" />
            <mxPoint x="985.5000000000005" y="410" as="targetPoint" />
            <Array as="points">
              <mxPoint x="873" y="410" />
            </Array>
          </mxGeometry>
        </mxCell>
        <mxCell id="r03zhSHbBfPZ_AZeYDTI-33" value="loadRequester(id)" style="edgeLabel;html=1;align=center;verticalAlign=middle;resizable=0;points=[];fontSize=15;" parent="r03zhSHbBfPZ_AZeYDTI-32" vertex="1" connectable="0">
          <mxGeometry x="-0.2561" y="-3" relative="1" as="geometry">
            <mxPoint x="45" y="-15" as="offset" />
          </mxGeometry>
        </mxCell>
        <mxCell id="r03zhSHbBfPZ_AZeYDTI-34" value="" style="fontSize=12;html=1;endArrow=blockThin;endFill=1;rounded=0;" parent="1" source="r03zhSHbBfPZ_AZeYDTI-15" target="r03zhSHbBfPZ_AZeYDTI-20" edge="1">
          <mxGeometry width="160" relative="1" as="geometry">
            <mxPoint x="917" y="389" as="sourcePoint" />
            <mxPoint x="1077" y="389" as="targetPoint" />
            <Array as="points">
              <mxPoint x="1263" y="416" />
            </Array>
          </mxGeometry>
        </mxCell>
        <mxCell id="r03zhSHbBfPZ_AZeYDTI-35" value="getEmployee(id)" style="edgeLabel;html=1;align=center;verticalAlign=middle;resizable=0;points=[];fontSize=15;" parent="r03zhSHbBfPZ_AZeYDTI-34" vertex="1" connectable="0">
          <mxGeometry x="-0.2535" y="1" relative="1" as="geometry">
            <mxPoint x="20" y="-11" as="offset" />
          </mxGeometry>
        </mxCell>
        <mxCell id="r03zhSHbBfPZ_AZeYDTI-36" value="" style="edgeStyle=elbowEdgeStyle;fontSize=12;html=1;endArrow=blockThin;endFill=1;rounded=0;" parent="1" source="r03zhSHbBfPZ_AZeYDTI-20" target="r03zhSHbBfPZ_AZeYDTI-18" edge="1">
          <mxGeometry width="160" relative="1" as="geometry">
            <mxPoint x="1065" y="396" as="sourcePoint" />
            <mxPoint x="1225" y="396" as="targetPoint" />
            <Array as="points">
              <mxPoint x="1442" y="420" />
              <mxPoint x="1334" y="409" />
            </Array>
          </mxGeometry>
        </mxCell>
        <mxCell id="r03zhSHbBfPZ_AZeYDTI-37" value="findById(id)" style="edgeLabel;html=1;align=center;verticalAlign=middle;resizable=0;points=[];fontSize=15;" parent="r03zhSHbBfPZ_AZeYDTI-36" vertex="1" connectable="0">
          <mxGeometry x="-0.2685" y="1" relative="1" as="geometry">
            <mxPoint x="15" y="-11" as="offset" />
          </mxGeometry>
        </mxCell>
        <mxCell id="r03zhSHbBfPZ_AZeYDTI-38" value="employee" style="html=1;verticalAlign=bottom;endArrow=open;dashed=1;endSize=8;rounded=0;fontSize=15;" parent="1" source="r03zhSHbBfPZ_AZeYDTI-18" target="r03zhSHbBfPZ_AZeYDTI-20" edge="1">
          <mxGeometry relative="1" as="geometry">
            <mxPoint x="1511" y="460" as="sourcePoint" />
            <mxPoint x="1221" y="462" as="targetPoint" />
            <Array as="points">
              <mxPoint x="1449" y="459" />
            </Array>
          </mxGeometry>
        </mxCell>
        <mxCell id="r03zhSHbBfPZ_AZeYDTI-39" value="employee" style="html=1;verticalAlign=bottom;endArrow=open;dashed=1;endSize=8;rounded=0;fontSize=15;" parent="1" source="r03zhSHbBfPZ_AZeYDTI-20" target="r03zhSHbBfPZ_AZeYDTI-15" edge="1">
          <mxGeometry relative="1" as="geometry">
            <mxPoint x="1158" y="471" as="sourcePoint" />
            <mxPoint x="991" y="471" as="targetPoint" />
            <Array as="points">
              <mxPoint x="1237" y="469" />
            </Array>
          </mxGeometry>
        </mxCell>
        <mxCell id="r03zhSHbBfPZ_AZeYDTI-40" value="employee" style="html=1;verticalAlign=bottom;endArrow=open;dashed=1;endSize=8;rounded=0;fontSize=15;startArrow=none;" parent="1" source="r03zhSHbBfPZ_AZeYDTI-15" target="r03zhSHbBfPZ_AZeYDTI-43" edge="1">
          <mxGeometry x="0.1211" y="-4" relative="1" as="geometry">
            <mxPoint x="981" y="480.9999999999998" as="sourcePoint" />
            <mxPoint x="312" y="396.5090909090909" as="targetPoint" />
            <Array as="points">
              <mxPoint x="964" y="482" />
            </Array>
            <mxPoint as="offset" />
          </mxGeometry>
        </mxCell>
        <mxCell id="r03zhSHbBfPZ_AZeYDTI-41" value="liste des changements" style="html=1;verticalAlign=bottom;endArrow=open;dashed=1;endSize=8;rounded=0;fontSize=15;" parent="1" source="r03zhSHbBfPZ_AZeYDTI-13" target="r03zhSHbBfPZ_AZeYDTI-5" edge="1">
          <mxGeometry relative="1" as="geometry">
            <mxPoint x="258.5" y="577" as="sourcePoint" />
            <mxPoint x="119.32352941176464" y="577" as="targetPoint" />
            <Array as="points">
              <mxPoint x="219" y="585" />
            </Array>
          </mxGeometry>
        </mxCell>
        <mxCell id="r03zhSHbBfPZ_AZeYDTI-42" value="&amp;lt;&amp;lt;component&amp;gt;&amp;gt;&lt;br&gt;Changelog" style="shape=umlLifeline;perimeter=lifelinePerimeter;whiteSpace=wrap;html=1;container=1;collapsible=0;recursiveResize=0;outlineConnect=0;rounded=0;shadow=0;glass=0;sketch=0;fillColor=none;fontSize=15;fontColor=#005C00;strokeColor=#005C00;" parent="1" vertex="1">
          <mxGeometry x="409" y="65" width="159" height="961" as="geometry" />
        </mxCell>
        <mxCell id="r03zhSHbBfPZ_AZeYDTI-43" value="" style="html=1;points=[];perimeter=orthogonalPerimeter;fontSize=15;fillColor=none;rounded=0;shadow=0;glass=0;sketch=0;" parent="r03zhSHbBfPZ_AZeYDTI-42" vertex="1">
          <mxGeometry x="74.5" y="217" width="10" height="297" as="geometry" />
        </mxCell>
        <mxCell id="r03zhSHbBfPZ_AZeYDTI-44" value="set&lt;span style=&quot;text-align: center;&quot;&gt;Requester&lt;/span&gt;(employee)" style="edgeStyle=orthogonalEdgeStyle;html=1;align=left;spacingLeft=2;endArrow=block;rounded=0;fontSize=15;" parent="r03zhSHbBfPZ_AZeYDTI-42" source="r03zhSHbBfPZ_AZeYDTI-43" target="r03zhSHbBfPZ_AZeYDTI-43" edge="1">
          <mxGeometry relative="1" as="geometry">
            <mxPoint x="-59" y="421" as="sourcePoint" />
            <Array as="points">
              <mxPoint x="114" y="437" />
              <mxPoint x="114" y="465" />
            </Array>
            <mxPoint x="-46" y="452" as="targetPoint" />
          </mxGeometry>
        </mxCell>
        <mxCell id="r03zhSHbBfPZ_AZeYDTI-45" value="" style="fontSize=12;html=1;endArrow=blockThin;endFill=1;rounded=0;" parent="1" source="r03zhSHbBfPZ_AZeYDTI-13" target="r03zhSHbBfPZ_AZeYDTI-43" edge="1">
          <mxGeometry width="160" relative="1" as="geometry">
            <mxPoint x="268.5" y="289" as="sourcePoint" />
            <mxPoint x="599" y="417" as="targetPoint" />
            <Array as="points">
              <mxPoint x="381" y="295" />
            </Array>
          </mxGeometry>
        </mxCell>
        <mxCell id="r03zhSHbBfPZ_AZeYDTI-46" value="loadChanges()" style="edgeLabel;html=1;align=center;verticalAlign=middle;resizable=0;points=[];fontSize=15;" parent="r03zhSHbBfPZ_AZeYDTI-45" vertex="1" connectable="0">
          <mxGeometry x="-0.0064" y="-3" relative="1" as="geometry">
            <mxPoint x="-4" y="-19" as="offset" />
          </mxGeometry>
        </mxCell>
        <mxCell id="r03zhSHbBfPZ_AZeYDTI-47" value="" style="html=1;verticalAlign=bottom;endArrow=open;dashed=1;endSize=8;rounded=0;" parent="1" source="r03zhSHbBfPZ_AZeYDTI-43" target="r03zhSHbBfPZ_AZeYDTI-13" edge="1">
          <mxGeometry relative="1" as="geometry">
            <mxPoint x="518" y="479" as="sourcePoint" />
            <mxPoint x="268.5" y="565.0000000000005" as="targetPoint" />
            <Array as="points">
              <mxPoint x="373" y="565" />
            </Array>
          </mxGeometry>
        </mxCell>
        <mxCell id="r03zhSHbBfPZ_AZeYDTI-48" value="&lt;span style=&quot;font-size: 15px;&quot;&gt;liste des changements&lt;/span&gt;" style="edgeLabel;html=1;align=center;verticalAlign=middle;resizable=0;points=[];" parent="r03zhSHbBfPZ_AZeYDTI-47" vertex="1" connectable="0">
          <mxGeometry x="-0.2232" y="3" relative="1" as="geometry">
            <mxPoint x="-18" y="-15" as="offset" />
          </mxGeometry>
        </mxCell>
        <mxCell id="r03zhSHbBfPZ_AZeYDTI-49" value="ref" style="shape=umlFrame;whiteSpace=wrap;html=1;labelBackgroundColor=none;fontSize=15;" parent="1" vertex="1">
          <mxGeometry x="40" y="190" width="1605" height="44" as="geometry" />
        </mxCell>
        <mxCell id="r03zhSHbBfPZ_AZeYDTI-50" value="&amp;lt;&amp;lt;Authentification&amp;gt;&amp;gt;" style="text;html=1;strokeColor=none;fillColor=none;align=center;verticalAlign=middle;whiteSpace=wrap;rounded=0;labelBackgroundColor=none;fontSize=15;fontColor=#000000;" parent="1" vertex="1">
          <mxGeometry x="722" y="197" width="152" height="30" as="geometry" />
        </mxCell>
        <mxCell id="r03zhSHbBfPZ_AZeYDTI-51" value="ref" style="shape=umlFrame;whiteSpace=wrap;html=1;labelBackgroundColor=none;fontSize=15;" parent="1" vertex="1">
          <mxGeometry x="40" y="645" width="1605" height="55" as="geometry" />
        </mxCell>
        <mxCell id="r03zhSHbBfPZ_AZeYDTI-52" value="ajouter demande de changement" style="text;html=1;strokeColor=none;fillColor=none;align=center;verticalAlign=middle;whiteSpace=wrap;rounded=0;labelBackgroundColor=none;fontSize=15;fontColor=#000000;" parent="1" vertex="1">
          <mxGeometry x="675" y="653" width="283" height="30" as="geometry" />
        </mxCell>
        <mxCell id="r03zhSHbBfPZ_AZeYDTI-53" value="ref" style="shape=umlFrame;whiteSpace=wrap;html=1;labelBackgroundColor=none;fontSize=15;" parent="1" vertex="1">
          <mxGeometry x="40" y="729" width="1605" height="55" as="geometry" />
        </mxCell>
        <mxCell id="r03zhSHbBfPZ_AZeYDTI-54" value="modifier demande de changement" style="text;html=1;strokeColor=none;fillColor=none;align=center;verticalAlign=middle;whiteSpace=wrap;rounded=0;labelBackgroundColor=none;fontSize=15;fontColor=#000000;" parent="1" vertex="1">
          <mxGeometry x="675" y="737" width="283" height="30" as="geometry" />
        </mxCell>
        <mxCell id="r03zhSHbBfPZ_AZeYDTI-55" value="ref" style="shape=umlFrame;whiteSpace=wrap;html=1;labelBackgroundColor=none;fontSize=15;" parent="1" vertex="1">
          <mxGeometry x="40" y="810" width="1605" height="55" as="geometry" />
        </mxCell>
        <mxCell id="r03zhSHbBfPZ_AZeYDTI-56" value="supprimer demande de changement" style="text;html=1;strokeColor=none;fillColor=none;align=center;verticalAlign=middle;whiteSpace=wrap;rounded=0;labelBackgroundColor=none;fontSize=15;fontColor=#000000;" parent="1" vertex="1">
          <mxGeometry x="676.5" y="818" width="283" height="30" as="geometry" />
        </mxCell>
        <mxCell id="r03zhSHbBfPZ_AZeYDTI-57" value="ref" style="shape=umlFrame;whiteSpace=wrap;html=1;labelBackgroundColor=none;fontSize=15;" parent="1" vertex="1">
          <mxGeometry x="40" y="889" width="1605" height="55" as="geometry" />
        </mxCell>
        <mxCell id="r03zhSHbBfPZ_AZeYDTI-58" value="consulter demande de changement" style="text;html=1;strokeColor=none;fillColor=none;align=center;verticalAlign=middle;whiteSpace=wrap;rounded=0;labelBackgroundColor=none;fontSize=15;fontColor=#000000;" parent="1" vertex="1">
          <mxGeometry x="675" y="897" width="283" height="30" as="geometry" />
        </mxCell>
        <mxCell id="r03zhSHbBfPZ_AZeYDTI-59" value="&lt;span style=&quot;font-family: Helvetica; font-size: 15px; font-style: normal; font-variant-ligatures: normal; font-variant-caps: normal; font-weight: 400; letter-spacing: normal; orphans: 2; text-indent: 0px; text-transform: none; widows: 2; word-spacing: 0px; -webkit-text-stroke-width: 0px; text-decoration-thickness: initial; text-decoration-style: initial; text-decoration-color: initial; float: none; display: inline !important;&quot;&gt;Interface IHM&lt;/span&gt;&lt;br style=&quot;font-family: Helvetica; font-size: 15px; font-style: normal; font-variant-ligatures: normal; font-variant-caps: normal; font-weight: 400; letter-spacing: normal; orphans: 2; text-indent: 0px; text-transform: none; widows: 2; word-spacing: 0px; -webkit-text-stroke-width: 0px; text-decoration-thickness: initial; text-decoration-style: initial; text-decoration-color: initial;&quot;&gt;Changelog" style="text;whiteSpace=wrap;html=1;fontSize=15;align=center;fillColor=default;fontColor=#005C00;labelBackgroundColor=none;" parent="1" vertex="1">
          <mxGeometry x="258" y="120" width="122" height="45" as="geometry" />
        </mxCell>
      </root>
    </mxGraphModel>
  </diagram>
  <diagram id="ptJdb482KGesu5izmlXP" name="Page-2">
    <mxGraphModel dx="1422" dy="794" grid="1" gridSize="10" guides="1" tooltips="1" connect="1" arrows="1" fold="1" page="1" pageScale="1" pageWidth="827" pageHeight="1169" math="0" shadow="0">
      <root>
        <mxCell id="0" />
        <mxCell id="1" parent="0" />
        <mxCell id="0RH8A5uQJgYG74pr5Mmb-1" value="Diagramme&amp;nbsp; de séquence&amp;nbsp; modifier demande de changement" style="shape=umlFrame;whiteSpace=wrap;html=1;rounded=0;shadow=0;glass=0;sketch=0;fontSize=15;fillColor=none;width=425;height=29;" vertex="1" parent="1">
          <mxGeometry x="25" y="21" width="1135" height="958" as="geometry" />
        </mxCell>
        <mxCell id="0RH8A5uQJgYG74pr5Mmb-2" value="ALT" style="shape=umlFrame;whiteSpace=wrap;html=1;width=45;height=30;" vertex="1" parent="1">
          <mxGeometry x="58" y="421" width="1082" height="530" as="geometry" />
        </mxCell>
        <mxCell id="0RH8A5uQJgYG74pr5Mmb-3" value="ALT" style="shape=umlFrame;whiteSpace=wrap;html=1;width=45;height=30;" vertex="1" parent="1">
          <mxGeometry x="84" y="536" width="1026" height="294" as="geometry" />
        </mxCell>
        <mxCell id="0RH8A5uQJgYG74pr5Mmb-4" value="&lt;font style=&quot;font-size: 15px;&quot;&gt;alt: formulaire valide&lt;/font&gt;" style="shape=umlFrame;whiteSpace=wrap;html=1;width=162;height=22;" vertex="1" parent="1">
          <mxGeometry x="58" y="306" width="384" height="103" as="geometry" />
        </mxCell>
        <mxCell id="0RH8A5uQJgYG74pr5Mmb-7" style="edgeStyle=none;rounded=0;orthogonalLoop=1;jettySize=auto;html=1;fontSize=15;fontColor=#000000;strokeColor=#000000;endArrow=none;endFill=0;dashed=1;exitX=0.001;exitY=0.556;exitDx=0;exitDy=0;exitPerimeter=0;entryX=1;entryY=0.554;entryDx=0;entryDy=0;entryPerimeter=0;" edge="1" parent="1" source="0RH8A5uQJgYG74pr5Mmb-3" target="0RH8A5uQJgYG74pr5Mmb-3">
          <mxGeometry relative="1" as="geometry">
            <Array as="points">
              <mxPoint x="238" y="700" />
            </Array>
            <mxPoint x="118.83333333333348" y="700" as="sourcePoint" />
            <mxPoint x="1216" y="699" as="targetPoint" />
          </mxGeometry>
        </mxCell>
        <mxCell id="0RH8A5uQJgYG74pr5Mmb-8" value="" style="shape=umlLifeline;participant=umlActor;perimeter=lifelinePerimeter;whiteSpace=wrap;html=1;container=1;collapsible=0;recursiveResize=0;verticalAlign=top;spacingTop=36;outlineConnect=0;fillColor=none;size=32;sketch=0;shadow=0;rounded=0;glass=0;" vertex="1" parent="1">
          <mxGeometry x="110" y="65" width="20" height="900" as="geometry" />
        </mxCell>
        <mxCell id="0RH8A5uQJgYG74pr5Mmb-9" value="&lt;span style=&quot;color: rgb(0, 0, 0); font-family: Helvetica; font-size: 15px; font-style: normal; font-variant-ligatures: normal; font-variant-caps: normal; font-weight: 400; letter-spacing: normal; orphans: 2; text-align: center; text-indent: 0px; text-transform: none; widows: 2; word-spacing: 0px; -webkit-text-stroke-width: 0px; background-color: rgb(248, 249, 250); text-decoration-thickness: initial; text-decoration-style: initial; text-decoration-color: initial; float: none; display: inline !important;&quot;&gt;Administrateur&lt;/span&gt;" style="text;whiteSpace=wrap;html=1;fontSize=15;" vertex="1" parent="1">
          <mxGeometry x="72" y="91" width="105" height="36" as="geometry" />
        </mxCell>
        <mxCell id="0RH8A5uQJgYG74pr5Mmb-19" value="" style="edgeStyle=elbowEdgeStyle;fontSize=12;html=1;endArrow=blockThin;endFill=1;rounded=0;" edge="1" parent="1" source="0RH8A5uQJgYG74pr5Mmb-8" target="FrigYXHkXrDkg9fx3NhX-14">
          <mxGeometry width="160" relative="1" as="geometry">
            <mxPoint x="628" y="319" as="sourcePoint" />
            <mxPoint x="300.5" y="237" as="targetPoint" />
            <Array as="points">
              <mxPoint x="190" y="237" />
              <mxPoint x="171" y="210" />
            </Array>
          </mxGeometry>
        </mxCell>
        <mxCell id="0RH8A5uQJgYG74pr5Mmb-20" value="demander modifier &lt;br&gt;changement" style="edgeLabel;html=1;align=center;verticalAlign=middle;resizable=0;points=[];fontSize=15;" vertex="1" connectable="0" parent="0RH8A5uQJgYG74pr5Mmb-19">
          <mxGeometry x="-0.3952" relative="1" as="geometry">
            <mxPoint x="30" y="-23" as="offset" />
          </mxGeometry>
        </mxCell>
        <mxCell id="0RH8A5uQJgYG74pr5Mmb-21" value="" style="edgeStyle=elbowEdgeStyle;fontSize=12;html=1;endArrow=blockThin;endFill=1;rounded=0;" edge="1" parent="1" source="qB2kHYJSbjh3QwDSy3Fn-4" target="qB2kHYJSbjh3QwDSy3Fn-6">
          <mxGeometry width="160" relative="1" as="geometry">
            <mxPoint x="770" y="509" as="sourcePoint" />
            <mxPoint x="1029" y="509" as="targetPoint" />
            <Array as="points">
              <mxPoint x="778" y="509" />
              <mxPoint x="753" y="300" />
              <mxPoint x="602" y="285" />
              <mxPoint x="527" y="314" />
            </Array>
          </mxGeometry>
        </mxCell>
        <mxCell id="0RH8A5uQJgYG74pr5Mmb-22" value="updateChangeLog(&lt;span style=&quot;background-color: rgb(248, 249, 250);&quot;&gt;changeLog&lt;/span&gt;)" style="edgeLabel;html=1;align=center;verticalAlign=middle;resizable=0;points=[];fontSize=15;" vertex="1" connectable="0" parent="0RH8A5uQJgYG74pr5Mmb-21">
          <mxGeometry x="0.1239" relative="1" as="geometry">
            <mxPoint x="-16" y="-14" as="offset" />
          </mxGeometry>
        </mxCell>
        <mxCell id="0RH8A5uQJgYG74pr5Mmb-23" value="" style="edgeStyle=elbowEdgeStyle;fontSize=12;html=1;endArrow=blockThin;endFill=1;rounded=0;" edge="1" parent="1" source="qB2kHYJSbjh3QwDSy3Fn-6" target="qB2kHYJSbjh3QwDSy3Fn-7">
          <mxGeometry width="160" relative="1" as="geometry">
            <mxPoint x="1039" y="523" as="sourcePoint" />
            <mxPoint x="1191.5" y="523" as="targetPoint" />
            <Array as="points">
              <mxPoint x="990" y="520" />
              <mxPoint x="969" y="534" />
              <mxPoint x="766" y="310" />
            </Array>
          </mxGeometry>
        </mxCell>
        <mxCell id="0RH8A5uQJgYG74pr5Mmb-24" value="save(&lt;span style=&quot;background-color: rgb(248, 249, 250);&quot;&gt;changeLog&lt;/span&gt;)" style="edgeLabel;html=1;align=center;verticalAlign=middle;resizable=0;points=[];fontSize=15;" vertex="1" connectable="0" parent="0RH8A5uQJgYG74pr5Mmb-23">
          <mxGeometry x="-0.3561" y="2" relative="1" as="geometry">
            <mxPoint x="23" y="-9" as="offset" />
          </mxGeometry>
        </mxCell>
        <mxCell id="0RH8A5uQJgYG74pr5Mmb-25" value="" style="html=1;verticalAlign=bottom;endArrow=open;dashed=1;endSize=8;rounded=0;fontSize=15;strokeColor=#009900;" edge="1" parent="1" source="qB2kHYJSbjh3QwDSy3Fn-7" target="qB2kHYJSbjh3QwDSy3Fn-6">
          <mxGeometry x="-0.0769" y="-1" relative="1" as="geometry">
            <mxPoint x="1191.5" y="561" as="sourcePoint" />
            <mxPoint x="1039" y="561" as="targetPoint" />
            <Array as="points">
              <mxPoint x="1052" y="561" />
            </Array>
            <mxPoint as="offset" />
          </mxGeometry>
        </mxCell>
        <mxCell id="qB2kHYJSbjh3QwDSy3Fn-8" value="&lt;span style=&quot;color: rgb(0, 153, 0); font-size: 15px;&quot;&gt;changement&lt;/span&gt;" style="edgeLabel;html=1;align=center;verticalAlign=middle;resizable=0;points=[];" vertex="1" connectable="0" parent="0RH8A5uQJgYG74pr5Mmb-25">
          <mxGeometry x="-0.0051" y="-1" relative="1" as="geometry">
            <mxPoint x="-5" y="-12" as="offset" />
          </mxGeometry>
        </mxCell>
        <mxCell id="0RH8A5uQJgYG74pr5Mmb-29" value="" style="fontSize=12;html=1;endArrow=blockThin;endFill=1;rounded=0;" edge="1" parent="1" source="FrigYXHkXrDkg9fx3NhX-14" target="qB2kHYJSbjh3QwDSy3Fn-2">
          <mxGeometry width="160" relative="1" as="geometry">
            <mxPoint x="310.5" y="238" as="sourcePoint" />
            <mxPoint x="519.5" y="238" as="targetPoint" />
            <Array as="points">
              <mxPoint x="382" y="250" />
            </Array>
          </mxGeometry>
        </mxCell>
        <mxCell id="0RH8A5uQJgYG74pr5Mmb-30" value="formulaire()" style="edgeLabel;html=1;align=center;verticalAlign=middle;resizable=0;points=[];fontSize=15;" vertex="1" connectable="0" parent="0RH8A5uQJgYG74pr5Mmb-29">
          <mxGeometry x="-0.0064" y="-3" relative="1" as="geometry">
            <mxPoint x="-3" y="-16" as="offset" />
          </mxGeometry>
        </mxCell>
        <mxCell id="0RH8A5uQJgYG74pr5Mmb-31" value="&lt;font style=&quot;font-size: 15px;&quot;&gt;formulaire rempli&lt;/font&gt;" style="html=1;verticalAlign=bottom;endArrow=open;dashed=1;endSize=8;rounded=0;" edge="1" parent="1" source="qB2kHYJSbjh3QwDSy3Fn-2" target="FrigYXHkXrDkg9fx3NhX-14">
          <mxGeometry relative="1" as="geometry">
            <mxPoint x="519.5" y="280" as="sourcePoint" />
            <mxPoint x="310.5" y="280" as="targetPoint" />
            <Array as="points">
              <mxPoint x="411" y="280" />
            </Array>
          </mxGeometry>
        </mxCell>
        <mxCell id="0RH8A5uQJgYG74pr5Mmb-32" value="&lt;font style=&quot;font-size: 15px;&quot;&gt;formulaire&lt;/font&gt;" style="html=1;verticalAlign=bottom;endArrow=open;dashed=1;endSize=8;rounded=0;" edge="1" parent="1" source="FrigYXHkXrDkg9fx3NhX-14" target="0RH8A5uQJgYG74pr5Mmb-8">
          <mxGeometry relative="1" as="geometry">
            <mxPoint x="300.5" y="298" as="sourcePoint" />
            <mxPoint x="119.66666666666697" y="298" as="targetPoint" />
            <Array as="points">
              <mxPoint x="250" y="290" />
            </Array>
          </mxGeometry>
        </mxCell>
        <mxCell id="0RH8A5uQJgYG74pr5Mmb-33" value="" style="fontSize=12;html=1;endArrow=blockThin;endFill=1;rounded=0;" edge="1" parent="1" source="0RH8A5uQJgYG74pr5Mmb-8">
          <mxGeometry width="160" relative="1" as="geometry">
            <mxPoint x="338" y="365" as="sourcePoint" />
            <mxPoint x="300.5" y="354" as="targetPoint" />
            <Array as="points">
              <mxPoint x="255" y="354" />
            </Array>
          </mxGeometry>
        </mxCell>
        <mxCell id="0RH8A5uQJgYG74pr5Mmb-34" value="modifier formulaire" style="edgeLabel;html=1;align=center;verticalAlign=middle;resizable=0;points=[];fontSize=15;" vertex="1" connectable="0" parent="0RH8A5uQJgYG74pr5Mmb-33">
          <mxGeometry x="0.1281" y="-4" relative="1" as="geometry">
            <mxPoint x="-3" y="-16" as="offset" />
          </mxGeometry>
        </mxCell>
        <mxCell id="0RH8A5uQJgYG74pr5Mmb-35" value="" style="fontSize=12;html=1;endArrow=blockThin;endFill=1;rounded=0;" edge="1" parent="1" target="0RH8A5uQJgYG74pr5Mmb-59">
          <mxGeometry width="160" relative="1" as="geometry">
            <mxPoint x="310.5" y="485" as="sourcePoint" />
            <mxPoint x="622" y="388" as="targetPoint" />
            <Array as="points">
              <mxPoint x="389" y="485" />
            </Array>
          </mxGeometry>
        </mxCell>
        <mxCell id="0RH8A5uQJgYG74pr5Mmb-36" value="save()" style="edgeLabel;html=1;align=center;verticalAlign=middle;resizable=0;points=[];labelBackgroundColor=none;fontSize=15;" vertex="1" connectable="0" parent="0RH8A5uQJgYG74pr5Mmb-35">
          <mxGeometry x="-0.0806" y="1" relative="1" as="geometry">
            <mxPoint x="1" y="-10" as="offset" />
          </mxGeometry>
        </mxCell>
        <mxCell id="0RH8A5uQJgYG74pr5Mmb-37" value="" style="fontSize=12;html=1;endArrow=blockThin;endFill=1;rounded=0;" edge="1" parent="1" source="0RH8A5uQJgYG74pr5Mmb-59" target="qB2kHYJSbjh3QwDSy3Fn-4">
          <mxGeometry width="160" relative="1" as="geometry">
            <mxPoint x="518" y="332" as="sourcePoint" />
            <mxPoint x="760" y="494" as="targetPoint" />
            <Array as="points">
              <mxPoint x="540" y="494" />
            </Array>
          </mxGeometry>
        </mxCell>
        <mxCell id="0RH8A5uQJgYG74pr5Mmb-38" value="&lt;span style=&quot;font-size: 15px;&quot;&gt;update(changeLog)&lt;/span&gt;" style="edgeLabel;html=1;align=center;verticalAlign=middle;resizable=0;points=[];labelBackgroundColor=none;fontSize=15;" vertex="1" connectable="0" parent="0RH8A5uQJgYG74pr5Mmb-37">
          <mxGeometry x="0.25" relative="1" as="geometry">
            <mxPoint x="-23" y="-11" as="offset" />
          </mxGeometry>
        </mxCell>
        <mxCell id="0RH8A5uQJgYG74pr5Mmb-39" value="&lt;span style=&quot;color: rgb(0, 153, 0);&quot;&gt;changement&lt;/span&gt;&lt;font color=&quot;#009900&quot;&gt;, statut 200&lt;/font&gt;" style="html=1;verticalAlign=bottom;endArrow=open;dashed=1;endSize=8;rounded=0;fontSize=15;strokeColor=#009900;" edge="1" parent="1" source="qB2kHYJSbjh3QwDSy3Fn-4" target="0RH8A5uQJgYG74pr5Mmb-59">
          <mxGeometry relative="1" as="geometry">
            <mxPoint x="760" y="609" as="sourcePoint" />
            <mxPoint x="409.9999999999998" y="581" as="targetPoint" />
            <Array as="points">
              <mxPoint x="633" y="609" />
            </Array>
          </mxGeometry>
        </mxCell>
        <mxCell id="0RH8A5uQJgYG74pr5Mmb-40" value="&lt;font color=&quot;#009900&quot;&gt;Rediriger vers liste&amp;nbsp;&lt;br&gt;&lt;/font&gt;&lt;span style=&quot;color: rgb(0, 153, 0);&quot;&gt;changements&lt;/span&gt;&lt;font color=&quot;#009900&quot;&gt;,pop-up vert&lt;br&gt;&lt;/font&gt;" style="html=1;verticalAlign=bottom;endArrow=open;dashed=1;endSize=8;rounded=0;fontSize=15;strokeColor=#009900;" edge="1" parent="1" source="0RH8A5uQJgYG74pr5Mmb-59">
          <mxGeometry x="-0.0136" y="-4" relative="1" as="geometry">
            <mxPoint x="673.9999999999998" y="584" as="sourcePoint" />
            <mxPoint x="310.5" y="632.0000000000002" as="targetPoint" />
            <Array as="points">
              <mxPoint x="459" y="632" />
            </Array>
            <mxPoint as="offset" />
          </mxGeometry>
        </mxCell>
        <mxCell id="0RH8A5uQJgYG74pr5Mmb-41" value="&lt;span style=&quot;color: rgb(0, 0, 0);&quot;&gt;liste des changements&lt;/span&gt;" style="html=1;verticalAlign=bottom;endArrow=open;dashed=1;endSize=8;rounded=0;fontSize=15;fontColor=#009900;strokeColor=#000000;" edge="1" parent="1">
          <mxGeometry relative="1" as="geometry">
            <mxPoint x="300.5" y="658.9999999999998" as="sourcePoint" />
            <mxPoint x="118.83333333333348" y="658.9999999999998" as="targetPoint" />
            <Array as="points">
              <mxPoint x="274" y="659" />
            </Array>
          </mxGeometry>
        </mxCell>
        <mxCell id="0RH8A5uQJgYG74pr5Mmb-42" value="&lt;span style=&quot;color: rgb(204, 0, 0);&quot;&gt;changement&lt;/span&gt;" style="html=1;verticalAlign=bottom;endArrow=open;dashed=1;endSize=8;rounded=0;fontSize=15;fontColor=#000000;strokeColor=#CC0000;" edge="1" parent="1" source="qB2kHYJSbjh3QwDSy3Fn-7" target="qB2kHYJSbjh3QwDSy3Fn-6">
          <mxGeometry relative="1" as="geometry">
            <mxPoint x="1191.5" y="729" as="sourcePoint" />
            <mxPoint x="1038" y="750.6250000000105" as="targetPoint" />
            <Array as="points">
              <mxPoint x="1038" y="729" />
            </Array>
          </mxGeometry>
        </mxCell>
        <mxCell id="0RH8A5uQJgYG74pr5Mmb-43" value="&lt;span style=&quot;color: rgb(204, 0, 0);&quot;&gt;changement&lt;/span&gt;" style="html=1;verticalAlign=bottom;endArrow=open;dashed=1;endSize=8;rounded=0;fontSize=15;fontColor=#000000;strokeColor=#CC0000;" edge="1" parent="1" source="qB2kHYJSbjh3QwDSy3Fn-6" target="qB2kHYJSbjh3QwDSy3Fn-4">
          <mxGeometry relative="1" as="geometry">
            <mxPoint x="1029" y="756.9999999999998" as="sourcePoint" />
            <mxPoint x="770" y="756.9999999999998" as="targetPoint" />
            <Array as="points">
              <mxPoint x="880" y="750" />
            </Array>
          </mxGeometry>
        </mxCell>
        <mxCell id="0RH8A5uQJgYG74pr5Mmb-44" value="&lt;span style=&quot;color: rgb(204, 0, 0);&quot;&gt;changement&lt;/span&gt;&lt;font color=&quot;#cc0000&quot;&gt;, statut 500&lt;/font&gt;" style="html=1;verticalAlign=bottom;endArrow=open;dashed=1;endSize=8;rounded=0;fontSize=15;fontColor=#000000;strokeColor=#CC0000;" edge="1" parent="1" source="qB2kHYJSbjh3QwDSy3Fn-4" target="0RH8A5uQJgYG74pr5Mmb-59">
          <mxGeometry relative="1" as="geometry">
            <mxPoint x="760" y="774" as="sourcePoint" />
            <mxPoint x="399.9999999999998" y="766" as="targetPoint" />
            <Array as="points">
              <mxPoint x="619" y="774" />
            </Array>
          </mxGeometry>
        </mxCell>
        <mxCell id="0RH8A5uQJgYG74pr5Mmb-45" value="&lt;font color=&quot;#cc0000&quot;&gt;Rediriger vers liste &lt;br&gt;changements,pop-up rouge&lt;/font&gt;" style="html=1;verticalAlign=bottom;endArrow=open;dashed=1;endSize=8;rounded=0;fontSize=15;strokeColor=#CC0000;" edge="1" parent="1" source="0RH8A5uQJgYG74pr5Mmb-59" target="FrigYXHkXrDkg9fx3NhX-14">
          <mxGeometry x="-0.0136" y="-4" relative="1" as="geometry">
            <mxPoint x="495" y="774" as="sourcePoint" />
            <mxPoint x="310.5" y="802" as="targetPoint" />
            <Array as="points">
              <mxPoint x="445" y="802" />
            </Array>
            <mxPoint as="offset" />
          </mxGeometry>
        </mxCell>
        <mxCell id="0RH8A5uQJgYG74pr5Mmb-46" value="&lt;span style=&quot;color: rgb(0, 0, 0);&quot;&gt;liste des changements&lt;/span&gt;" style="html=1;verticalAlign=bottom;endArrow=open;dashed=1;endSize=8;rounded=0;fontSize=15;fontColor=#009900;strokeColor=#000000;" edge="1" parent="1">
          <mxGeometry relative="1" as="geometry">
            <mxPoint x="300.5" y="817" as="sourcePoint" />
            <mxPoint x="118.83333333333348" y="817" as="targetPoint" />
            <Array as="points">
              <mxPoint x="231" y="817" />
            </Array>
          </mxGeometry>
        </mxCell>
        <mxCell id="0RH8A5uQJgYG74pr5Mmb-47" value="liste des changements" style="html=1;verticalAlign=bottom;endArrow=open;dashed=1;endSize=8;rounded=0;fontSize=15;fontColor=#000000;" edge="1" parent="1" target="0RH8A5uQJgYG74pr5Mmb-8">
          <mxGeometry relative="1" as="geometry">
            <mxPoint x="300.5" y="942" as="sourcePoint" />
            <mxPoint x="119.89393939393949" y="942" as="targetPoint" />
            <Array as="points">
              <mxPoint x="188" y="942" />
              <mxPoint x="166.07" y="942" />
            </Array>
          </mxGeometry>
        </mxCell>
        <mxCell id="0RH8A5uQJgYG74pr5Mmb-48" value="" style="edgeStyle=elbowEdgeStyle;fontSize=12;html=1;endArrow=blockThin;endFill=1;rounded=0;fontColor=#000000;" edge="1" parent="1" source="0RH8A5uQJgYG74pr5Mmb-8">
          <mxGeometry width="160" relative="1" as="geometry">
            <mxPoint x="125.24380952380965" y="482" as="sourcePoint" />
            <mxPoint x="300.5" y="475" as="targetPoint" />
            <Array as="points">
              <mxPoint x="262" y="475" />
              <mxPoint x="288.22" y="482" />
              <mxPoint x="308.22" y="509" />
              <mxPoint x="230.04" y="492" />
            </Array>
          </mxGeometry>
        </mxCell>
        <mxCell id="0RH8A5uQJgYG74pr5Mmb-49" value="cliquer sauvegarder" style="edgeLabel;html=1;align=center;verticalAlign=middle;resizable=0;points=[];fontSize=15;fontColor=#000000;" vertex="1" connectable="0" parent="0RH8A5uQJgYG74pr5Mmb-48">
          <mxGeometry x="-0.0222" y="2" relative="1" as="geometry">
            <mxPoint y="-9" as="offset" />
          </mxGeometry>
        </mxCell>
        <mxCell id="0RH8A5uQJgYG74pr5Mmb-50" value="&lt;div style=&quot;text-align: left;&quot;&gt;&lt;span style=&quot;color: rgb(0, 0, 0); text-align: center; background-color: rgb(255, 255, 255);&quot;&gt;&lt;font style=&quot;font-size: 15px;&quot;&gt;[cliquer annuler]&lt;/font&gt;&lt;/span&gt;&lt;br&gt;&lt;/div&gt;" style="text;html=1;strokeColor=none;fillColor=none;align=center;verticalAlign=bottom;whiteSpace=wrap;rounded=0;fontSize=15;fontColor=#009900;" vertex="1" parent="1">
          <mxGeometry x="131.00475647091565" y="843" width="148.4887280823824" height="24.35" as="geometry" />
        </mxCell>
        <mxCell id="0RH8A5uQJgYG74pr5Mmb-51" value="" style="edgeStyle=elbowEdgeStyle;fontSize=12;html=1;endArrow=blockThin;endFill=1;rounded=0;fontColor=#000000;" edge="1" parent="1">
          <mxGeometry width="160" relative="1" as="geometry">
            <mxPoint x="119.16666666666674" y="886" as="sourcePoint" />
            <mxPoint x="300.5" y="886" as="targetPoint" />
            <Array as="points">
              <mxPoint x="244" y="886" />
              <mxPoint x="302.75" y="890" />
              <mxPoint x="225.26" y="869" />
            </Array>
          </mxGeometry>
        </mxCell>
        <mxCell id="0RH8A5uQJgYG74pr5Mmb-52" value="cliquer annuler" style="edgeLabel;html=1;align=center;verticalAlign=middle;resizable=0;points=[];fontSize=15;fontColor=#000000;" vertex="1" connectable="0" parent="0RH8A5uQJgYG74pr5Mmb-51">
          <mxGeometry x="-0.0222" y="2" relative="1" as="geometry">
            <mxPoint y="-9" as="offset" />
          </mxGeometry>
        </mxCell>
        <mxCell id="0RH8A5uQJgYG74pr5Mmb-53" value="" style="edgeStyle=elbowEdgeStyle;fontSize=12;html=1;endArrow=blockThin;endFill=1;rounded=0;fontColor=#000000;" edge="1" parent="1" target="0RH8A5uQJgYG74pr5Mmb-59">
          <mxGeometry width="160" relative="1" as="geometry">
            <mxPoint x="310.5" y="902" as="sourcePoint" />
            <mxPoint x="497" y="902" as="targetPoint" />
            <Array as="points">
              <mxPoint x="425" y="902" />
              <mxPoint x="458" y="872" />
              <mxPoint x="379.5" y="826" />
            </Array>
          </mxGeometry>
        </mxCell>
        <mxCell id="0RH8A5uQJgYG74pr5Mmb-54" value="previousState()" style="edgeLabel;html=1;align=center;verticalAlign=middle;resizable=0;points=[];fontSize=15;fontColor=#000000;" vertex="1" connectable="0" parent="0RH8A5uQJgYG74pr5Mmb-53">
          <mxGeometry x="-0.2905" y="-1" relative="1" as="geometry">
            <mxPoint x="31" y="-13" as="offset" />
          </mxGeometry>
        </mxCell>
        <mxCell id="0RH8A5uQJgYG74pr5Mmb-55" value="revenir en arriere&amp;nbsp;" style="html=1;verticalAlign=bottom;endArrow=open;dashed=1;endSize=8;rounded=0;fontSize=15;fontColor=#000000;labelBackgroundColor=none;" edge="1" parent="1" source="0RH8A5uQJgYG74pr5Mmb-59">
          <mxGeometry x="-0.067" y="2" relative="1" as="geometry">
            <mxPoint x="497" y="925" as="sourcePoint" />
            <mxPoint x="310.5" y="927" as="targetPoint" />
            <Array as="points">
              <mxPoint x="430" y="927" />
            </Array>
            <mxPoint as="offset" />
          </mxGeometry>
        </mxCell>
        <mxCell id="0RH8A5uQJgYG74pr5Mmb-56" value="&lt;div style=&quot;text-align: left; font-size: 15px;&quot;&gt;&lt;span style=&quot;background-color: initial; font-size: 15px;&quot;&gt;[Changement&amp;nbsp;&lt;/span&gt;&lt;span style=&quot;background-color: initial; text-align: right; font-size: 15px;&quot;&gt;Valide]&lt;/span&gt;&lt;/div&gt;" style="text;html=1;strokeColor=none;fillColor=none;align=center;verticalAlign=middle;whiteSpace=wrap;rounded=0;fontSize=15;fontColor=#009900;" vertex="1" parent="1">
          <mxGeometry x="131.62" y="536" width="141" height="24.35" as="geometry" />
        </mxCell>
        <mxCell id="0RH8A5uQJgYG74pr5Mmb-57" value="[Changement Invalide]" style="text;html=1;strokeColor=none;fillColor=none;align=center;verticalAlign=middle;whiteSpace=wrap;rounded=0;fontSize=16;fontColor=#FF5521;" vertex="1" parent="1">
          <mxGeometry x="126.62" y="718" width="163.38" height="22.6" as="geometry" />
        </mxCell>
        <mxCell id="0RH8A5uQJgYG74pr5Mmb-58" value="&lt;div style=&quot;text-align: left;&quot;&gt;&lt;span style=&quot;color: rgb(0, 0, 0); text-align: center; background-color: rgb(255, 255, 255);&quot;&gt;&lt;font style=&quot;font-size: 15px;&quot;&gt;[cliquer sauvegarder]&lt;/font&gt;&lt;/span&gt;&lt;br&gt;&lt;/div&gt;" style="text;html=1;strokeColor=none;fillColor=none;align=center;verticalAlign=bottom;whiteSpace=wrap;rounded=0;fontSize=15;fontColor=#009900;" vertex="1" parent="1">
          <mxGeometry x="137.00475647091565" y="426" width="148.4887280823824" height="24.35" as="geometry" />
        </mxCell>
        <mxCell id="0RH8A5uQJgYG74pr5Mmb-60" style="rounded=0;orthogonalLoop=1;jettySize=auto;html=1;fontSize=15;fontColor=#000000;strokeColor=#000000;endArrow=none;endFill=0;dashed=1;entryX=1.001;entryY=0.803;entryDx=0;entryDy=0;entryPerimeter=0;exitX=0;exitY=0.79;exitDx=0;exitDy=0;exitPerimeter=0;" edge="1" parent="1" source="0RH8A5uQJgYG74pr5Mmb-2" target="0RH8A5uQJgYG74pr5Mmb-2">
          <mxGeometry relative="1" as="geometry">
            <mxPoint x="116.86736842105256" y="843" as="sourcePoint" />
            <mxPoint x="1167.0000000000005" y="849.096" as="targetPoint" />
          </mxGeometry>
        </mxCell>
        <mxCell id="FrigYXHkXrDkg9fx3NhX-1" value=":&lt;span style=&quot;background-color: rgb(248, 249, 250);&quot;&gt;Changelog&lt;/span&gt;&lt;br&gt;Controler" style="shape=umlLifeline;perimeter=lifelinePerimeter;whiteSpace=wrap;html=1;container=1;collapsible=0;recursiveResize=0;outlineConnect=0;rounded=0;shadow=0;glass=0;sketch=0;fillColor=none;fontSize=15;fontColor=#005C00;strokeColor=#005C00;labelBackgroundColor=default;" vertex="1" parent="1">
          <mxGeometry x="621" y="65" width="130" height="950" as="geometry" />
        </mxCell>
        <mxCell id="qB2kHYJSbjh3QwDSy3Fn-4" value="" style="html=1;points=[];perimeter=orthogonalPerimeter;fontSize=15;fillColor=none;rounded=0;shadow=0;glass=0;sketch=0;" vertex="1" parent="FrigYXHkXrDkg9fx3NhX-1">
          <mxGeometry x="60" y="416" width="10" height="463" as="geometry" />
        </mxCell>
        <mxCell id="FrigYXHkXrDkg9fx3NhX-3" value=":Changelog&lt;br&gt;Service" style="shape=umlLifeline;perimeter=lifelinePerimeter;whiteSpace=wrap;html=1;container=1;collapsible=0;recursiveResize=0;outlineConnect=0;rounded=0;shadow=0;glass=0;sketch=0;fillColor=none;fontSize=15;fontColor=#005C00;strokeColor=#005C00;" vertex="1" parent="1">
          <mxGeometry x="860" y="65" width="130" height="950" as="geometry" />
        </mxCell>
        <mxCell id="qB2kHYJSbjh3QwDSy3Fn-6" value="" style="html=1;points=[];perimeter=orthogonalPerimeter;rounded=0;shadow=0;glass=0;sketch=0;fontSize=15;fillColor=none;" vertex="1" parent="FrigYXHkXrDkg9fx3NhX-3">
          <mxGeometry x="60" y="431" width="10" height="305" as="geometry" />
        </mxCell>
        <mxCell id="FrigYXHkXrDkg9fx3NhX-5" value="" style="shape=umlLifeline;participant=umlEntity;perimeter=lifelinePerimeter;whiteSpace=wrap;html=1;container=1;collapsible=0;recursiveResize=0;verticalAlign=top;spacingTop=36;outlineConnect=0;rounded=0;shadow=0;glass=0;sketch=0;fontSize=15;fillColor=none;fontColor=#CC6600;strokeColor=#005C00;" vertex="1" parent="1">
          <mxGeometry x="1016" y="65" width="98" height="950" as="geometry" />
        </mxCell>
        <mxCell id="FrigYXHkXrDkg9fx3NhX-7" value="&lt;span style=&quot;font-family: Helvetica; font-size: 15px; font-style: normal; font-variant-ligatures: normal; font-variant-caps: normal; font-weight: 400; letter-spacing: normal; orphans: 2; text-indent: 0px; text-transform: none; widows: 2; word-spacing: 0px; -webkit-text-stroke-width: 0px; background-color: rgb(248, 249, 250); text-decoration-thickness: initial; text-decoration-style: initial; text-decoration-color: initial; float: none; display: inline !important;&quot;&gt;Base de donnée&lt;br&gt;Risk_Change&lt;br&gt;&lt;/span&gt;" style="text;whiteSpace=wrap;html=1;fontSize=15;align=center;fillColor=none;fontColor=#005C00;" vertex="1" parent="FrigYXHkXrDkg9fx3NhX-5">
          <mxGeometry x="-10.5" y="50" width="119" height="45" as="geometry" />
        </mxCell>
        <mxCell id="qB2kHYJSbjh3QwDSy3Fn-7" value="" style="html=1;points=[];perimeter=orthogonalPerimeter;rounded=0;shadow=0;glass=0;sketch=0;fontSize=15;fillColor=none;" vertex="1" parent="FrigYXHkXrDkg9fx3NhX-5">
          <mxGeometry x="44" y="445" width="10" height="264" as="geometry" />
        </mxCell>
        <mxCell id="FrigYXHkXrDkg9fx3NhX-8" value="" style="shape=umlLifeline;participant=umlBoundary;perimeter=lifelinePerimeter;whiteSpace=wrap;html=1;container=1;collapsible=0;recursiveResize=0;verticalAlign=top;spacingTop=36;outlineConnect=0;rounded=0;shadow=0;glass=0;sketch=0;fontSize=15;fillColor=none;fontColor=#CC6600;strokeColor=#005C00;" vertex="1" parent="1">
          <mxGeometry x="268" y="65" width="65" height="950" as="geometry" />
        </mxCell>
        <mxCell id="FrigYXHkXrDkg9fx3NhX-14" value="" style="html=1;points=[];perimeter=orthogonalPerimeter;rounded=0;shadow=0;glass=0;sketch=0;fontSize=15;fillColor=none;" vertex="1" parent="FrigYXHkXrDkg9fx3NhX-8">
          <mxGeometry x="27.5" y="160" width="10" height="740" as="geometry" />
        </mxCell>
        <mxCell id="qB2kHYJSbjh3QwDSy3Fn-3" value="valider&lt;br&gt;formulaire" style="edgeStyle=orthogonalEdgeStyle;html=1;align=left;spacingLeft=2;endArrow=block;rounded=0;fontSize=15;" edge="1" parent="FrigYXHkXrDkg9fx3NhX-8" source="FrigYXHkXrDkg9fx3NhX-14" target="FrigYXHkXrDkg9fx3NhX-14">
          <mxGeometry relative="1" as="geometry">
            <mxPoint x="46.620000000000005" y="295" as="sourcePoint" />
            <Array as="points">
              <mxPoint x="72" y="305" />
              <mxPoint x="72" y="335" />
            </Array>
            <mxPoint x="46.620000000000005" y="322.99999999999955" as="targetPoint" />
          </mxGeometry>
        </mxCell>
        <mxCell id="FrigYXHkXrDkg9fx3NhX-10" value="&amp;lt;&amp;lt;component&amp;gt;&amp;gt;&lt;br&gt;ModifierChangelog" style="shape=umlLifeline;perimeter=lifelinePerimeter;whiteSpace=wrap;html=1;container=1;collapsible=0;recursiveResize=0;outlineConnect=0;rounded=0;shadow=0;glass=0;sketch=0;fillColor=none;fontSize=15;fontColor=#005C00;strokeColor=#005C00;" vertex="1" parent="1">
          <mxGeometry x="419" y="65" width="159" height="961" as="geometry" />
        </mxCell>
        <mxCell id="qB2kHYJSbjh3QwDSy3Fn-2" value="" style="html=1;points=[];perimeter=orthogonalPerimeter;fontSize=15;fillColor=none;rounded=0;shadow=0;glass=0;sketch=0;" vertex="1" parent="FrigYXHkXrDkg9fx3NhX-10">
          <mxGeometry x="74.5" y="160" width="10" height="66" as="geometry" />
        </mxCell>
        <mxCell id="0RH8A5uQJgYG74pr5Mmb-59" value="" style="html=1;points=[];perimeter=orthogonalPerimeter;fontSize=15;fillColor=none;rounded=0;shadow=0;glass=0;sketch=0;" vertex="1" parent="FrigYXHkXrDkg9fx3NhX-10">
          <mxGeometry x="74.5" y="416" width="10" height="463" as="geometry" />
        </mxCell>
        <mxCell id="qB2kHYJSbjh3QwDSy3Fn-1" value="&lt;span style=&quot;font-family: Helvetica; font-size: 15px; font-style: normal; font-variant-ligatures: normal; font-variant-caps: normal; font-weight: 400; letter-spacing: normal; orphans: 2; text-indent: 0px; text-transform: none; widows: 2; word-spacing: 0px; -webkit-text-stroke-width: 0px; text-decoration-thickness: initial; text-decoration-style: initial; text-decoration-color: initial; float: none; display: inline !important;&quot;&gt;Interface IHM&lt;/span&gt;&lt;br style=&quot;font-family: Helvetica; font-size: 15px; font-style: normal; font-variant-ligatures: normal; font-variant-caps: normal; font-weight: 400; letter-spacing: normal; orphans: 2; text-indent: 0px; text-transform: none; widows: 2; word-spacing: 0px; -webkit-text-stroke-width: 0px; text-decoration-thickness: initial; text-decoration-style: initial; text-decoration-color: initial;&quot;&gt;ModifierChangelog" style="text;whiteSpace=wrap;html=1;fontSize=15;align=center;fillColor=default;fontColor=#005C00;labelBackgroundColor=none;" vertex="1" parent="1">
          <mxGeometry x="239.5" y="120" width="122" height="45" as="geometry" />
        </mxCell>
        <mxCell id="0RH8A5uQJgYG74pr5Mmb-26" value="&lt;span style=&quot;color: rgb(0, 153, 0);&quot;&gt;changement&lt;/span&gt;" style="html=1;verticalAlign=bottom;endArrow=open;dashed=1;endSize=8;rounded=0;fontSize=15;strokeColor=#009900;" edge="1" parent="1" source="qB2kHYJSbjh3QwDSy3Fn-6" target="qB2kHYJSbjh3QwDSy3Fn-4">
          <mxGeometry relative="1" as="geometry">
            <mxPoint x="969" y="648.33" as="sourcePoint" />
            <mxPoint x="710" y="648.33" as="targetPoint" />
            <Array as="points">
              <mxPoint x="840" y="580" />
            </Array>
          </mxGeometry>
        </mxCell>
      </root>
    </mxGraphModel>
  </diagram>
</mxfile>
